<svg width="153px" height="44px" viewBox="0 0 173 44" version="1.1" xmlns="http://www.w3.org/2000/svg" xmlns:xlink="http://www.w3.org/1999/xlink">
            <title>macys-logo</title>
            <g id="Winners" stroke="none" stroke-width="1" fill="none" fill-rule="evenodd">
                <g id="large---new-logo" transform="translate(-180.000000, -53.000000)">
                    <g id="macys-logo" transform="translate(180.000000, 53.453936)">
                        <path d="M150.178958,24.466946 C149.028377,23.5935683 147.637836,23.2166032 146.280815,22.8489493 L146.129976,22.8098428 C144.723207,22.4147877 143.891596,22.0487299 143.348096,21.5845069 C142.796615,21.1112389 142.529787,20.4852695 142.484828,19.5573555 C142.465673,19.1327711 142.524998,18.7246805 142.660142,18.3463853 C142.795551,17.9728787 143.000927,17.6398086 143.269883,17.3567523 C143.571296,17.0380479 143.949857,16.7869153 144.391999,16.6118673 C144.852764,16.4312327 145.367267,16.3397182 145.935774,16.3397182 C146.399731,16.3218942 146.872733,16.399309 147.303436,16.5549368 C147.701683,16.7001894 148.044862,16.9119495 148.322332,17.1843646 C148.587032,17.4472026 148.797196,17.77442 148.944045,18.1572377 C149.098343,18.5605397 149.180014,19.0234326 149.187197,19.5339449 L149.202627,20.4389802 L151.827814,20.4389802 L151.816109,19.5041495 C151.787378,17.8348089 151.209826,16.4064918 150.144374,15.3748261 C149.08983,14.3519393 147.629589,13.7999263 145.911831,13.7759836 C144.342518,13.7759836 142.883341,14.2710661 141.801662,15.1702487 C140.532165,16.2277194 139.860704,17.7624486 139.860704,19.6241292 C139.920827,21.4155777 140.508222,22.6957158 141.710147,23.6497007 C142.780121,24.5049883 144.258186,24.9782563 145.70885,25.3972542 C147.220434,25.7316543 148.216984,26.1796495 148.845348,26.8082792 C149.425826,27.3898216 149.709148,28.1748772 149.738944,29.2741147 L149.741338,29.4050017 C149.741338,29.9224307 149.651154,30.4137888 149.471849,30.8660404 C149.296535,31.3129715 149.037954,31.7162735 148.705416,32.0613149 C148.360108,32.4159334 147.948825,32.6918069 147.480346,32.8822846 C146.997235,33.0759547 146.469697,33.1738539 145.913161,33.1738539 C144.69953,33.1738539 143.672387,32.7966228 142.942666,32.0839275 C142.216403,31.3749565 141.821614,30.3685637 141.800065,29.171693 L141.784902,28.2639974 L139.203343,28.2786291 L139.15599,29.4441081 C139.15599,30.2257054 139.294591,30.9788373 139.568869,31.685414 C139.845274,32.3885322 140.252301,33.0307296 140.780105,33.5957781 C141.407405,34.2643124 142.206028,34.8118029 143.090845,35.1802549 C143.966351,35.5433864 144.942682,35.7357263 145.913161,35.7357263 C146.824315,35.7357263 147.704343,35.5612104 148.529038,35.2148389 C149.351071,34.8666051 150.075472,34.3619455 150.683352,33.7160238 C151.272609,33.0903204 151.717412,32.3680479 152.004458,31.571287 C152.292835,30.7755901 152.413613,29.9330719 152.364131,29.0684733 C152.256389,27.0032795 151.540767,25.4972816 150.178958,24.466946" id="Fill-1" fill="#000000"></path>
                        <g id="Group-5" transform="translate(135.409457, 0.091780)">
                            <mask id="mask-2" fill="white">
                                 <polygon id="path-1" points="0.0877634185 0.174249891 9.02957615 0.174249891 9.02957615 8.67280283 0.0877634185 8.67280283"></polygon>
                            </mask>
                            <g id="Clip-4"></g>
                            <polygon id="Fill-3" fill="#000000" mask="url(#mask-2)" points="3.50997807 3.41604275 0.0877634185 3.41604275 2.86006588 5.42643424 1.82307951 8.66562001 4.55999994 6.66453958 7.31447837 8.67280283 6.26445651 5.42403997 9.02957615 3.41604275 5.6134802 3.41604275 4.56718276 0.174196685"></polygon>
                        </g>
                        <g id="Group-8" transform="translate(118.915575, 13.659329)">
                            <mask id="mask-4" fill="white">
                                <polygon id="path-3" points="0.0131152971 0.117266186 19.9667231 0.117266186 19.9667231 29.5293709 0.0131152971 29.5293709"></polygon>
                            </mask>
                            <g id="Clip-7"></g>
                            <path d="M9.73466304,17.3882237 L2.86389672,0.117266186 L0.0131152971,0.117266186 L0.750019417,1.98533143 C0.81040831,2.13883095 2.70720484,6.94121116 4.59229602,11.7031547 L8.22201437,20.8740196 L4.43347589,29.5295837 L7.35980994,29.5295837 L19.2064083,2.00421959 L19.9667231,0.117266186 L17.0273535,0.117266186 L9.73466304,17.3882237 Z" id="Fill-6" fill="#000000" mask="url(#mask-4)"></path>
                        </g>
                        <path d="M102.607461,18.7336457 C103.584856,17.8581398 104.474728,17.2776615 105.409559,16.905219 C106.337207,16.5351707 107.355305,16.3545361 108.702749,16.3380422 C110.201032,16.3380422 111.740815,16.7753962 113.038511,17.5702949 C114.5485,18.4968787 115.667424,19.8730538 116.271046,21.5493111 L116.488393,22.1585207 L119.314966,22.1585207 L118.884529,20.9342489 C118.046799,18.5503508 116.484669,16.6269512 114.367333,15.3694257 C112.641062,14.3428145 110.579327,13.7764358 108.562817,13.7764358 C105.543638,13.7764358 102.763887,14.8982859 100.735671,16.9360785 C98.7047952,18.9714768 97.5858715,21.7624014 97.5858715,24.7922213 C97.5858715,27.5804856 98.6217938,30.3144797 100.427342,32.2913514 C102.484023,34.5443625 105.360875,35.7356465 108.742919,35.7356465 C111.006305,35.7356465 113.153703,35.0812118 114.953132,33.8436386 C116.751763,32.6018088 118.097877,30.8462744 118.845422,28.7677791 L119.290225,27.5352604 L116.44104,27.5352604 L116.230876,28.1577715 C115.800173,29.4115726 114.860553,30.641431 113.650647,31.5326327 C112.217542,32.5890393 110.457219,33.1562161 108.562817,33.1719119 C107.453204,33.1719119 106.377377,32.9694628 105.368058,32.5712153 C104.365655,32.1713717 103.467537,31.5908934 102.697645,30.8449442 C101.903012,30.0763825 101.283694,29.1580457 100.856449,28.118399 C100.4308,27.076358 100.214784,25.9438668 100.214784,24.7552431 C100.214784,23.5990751 100.4449,22.4165701 100.881456,21.3351567 C101.308434,20.2718333 101.906471,19.3713205 102.607461,18.7336457" id="Fill-9" fill="#000000"></path>
                        <path d="M92.3593059,13.7762496 L92.3593059,17.379897 C91.7955875,16.7400939 91.13397,16.1593496 90.4007903,15.6658633 C88.5654468,14.4296202 86.3957031,13.7765156 84.1230057,13.7765156 C79.9590984,13.7765156 77.3873828,15.6847515 75.9635883,17.28386 C74.1748001,19.2857385 73.1487209,22.0085593 73.1487209,24.7553229 C73.1487209,27.498628 74.173736,30.2214489 75.961194,32.2249236 C77.3860526,33.8261604 79.9590984,35.7343962 84.1230057,35.7343962 C86.2818421,35.7343962 88.2286524,35.2180312 89.9083681,34.199401 C90.8301633,33.639407 91.6498029,32.938683 92.3593059,32.1084023 L92.3593059,35.7314699 L94.988218,35.7314699 L94.988218,13.7762496 L92.3593059,13.7762496 Z M92.368883,26.1615594 C92.2821571,26.6968125 92.1483438,27.2012061 91.9666451,27.6723459 C91.3781859,29.3438147 90.3497125,30.7367497 88.9950859,31.6979174 C87.6367348,32.6628096 85.9889427,33.1717257 84.2320781,33.1717257 C81.6648851,33.1717257 79.4927471,32.2677545 77.9508351,30.5582433 C76.5853012,29.0439985 75.7917326,26.9277269 75.7749727,24.7553229 C75.7749727,22.4248969 76.6220134,20.288407 78.1594029,18.7395782 C79.6957283,17.1907494 81.813064,16.3389201 84.1230057,16.3389201 C85.8418279,16.3389201 87.481107,16.8233614 88.8620707,17.739038 C90.2358515,18.6515221 91.2773604,19.9423015 91.8799192,21.4852776 C92.071195,21.9396575 92.2180438,22.4275572 92.3178051,22.9351431 C92.4173005,23.4456554 92.4683783,23.9894215 92.4683783,24.5688356 C92.4885966,25.0931815 92.4553428,25.6284346 92.368883,26.1615594 Z" id="Fill-11" fill="#000000"></path>
                        <path d="M68.091457,15.9512341 C67.3678544,15.2255032 66.4984672,14.6737563 65.5077701,14.3116889 C63.5966079,13.611497 60.9796672,13.5529703 58.8088594,14.4689129 C57.7221254,14.9267511 56.7614897,15.6014041 56.0307043,16.415191 C55.7316861,16.7434725 55.4696462,17.0858536 55.2334113,17.4561679 C54.9641885,16.9836979 54.7303478,16.642381 54.5451907,16.4471147 C53.8215881,15.5809198 52.9000589,14.9091931 51.8040138,14.4510888 C50.7303152,14.0038918 49.5321144,13.7767019 48.2392068,13.7767019 C47.4219616,13.7767019 46.1702887,13.9041304 44.8497139,14.5104136 C43.9840511,14.9091931 43.2152233,15.4540233 42.5546699,16.1369233 L42.5546699,13.7761698 L39.9257578,13.7761698 L39.9257578,35.73139 L42.5546699,35.73139 L42.5546699,23.4016806 C42.5546699,22.2013515 42.6850248,21.1984171 42.9542476,20.3359466 C43.2114989,19.50673 43.606554,18.7956308 44.1795834,18.1377377 C44.5948568,17.5929075 45.1987458,17.1300146 45.9247426,16.800403 C46.6768105,16.4625444 47.4741035,16.2973396 48.2142,16.3388403 C49.2416093,16.3723602 50.1421221,16.5615077 50.8915296,16.9014946 C51.6188566,17.2321703 52.2285982,17.7118231 52.699472,18.3197024 C53.1432107,18.9142803 53.4113693,19.4343697 53.5962604,20.058743 C53.8253125,20.8201219 53.9319907,21.7565488 53.9319907,23.0042312 L53.9250739,35.73139 L56.5523898,35.73139 L56.5523898,23.5836453 C56.5523898,22.2739778 56.5941566,21.2292766 56.799,20.3872905 C56.9796346,19.6437356 57.3023294,19.0060608 57.8812115,18.254259 C58.3688452,17.6179143 59.0496169,17.1228318 59.9086289,16.7839091 C61.4436242,16.1749656 63.3095612,16.2449316 64.5670867,16.7054302 C65.200505,16.9360785 65.7450692,17.2861745 66.1922662,17.7509295 C66.7557186,18.3173082 67.1850916,19.0704401 67.4686799,19.9898411 C67.7711565,20.970163 67.92439,22.178739 67.92439,23.5836453 L67.92439,35.73139 L70.5506418,35.73139 L70.5506418,23.5836453 C70.5506418,21.8956827 70.351385,20.4037844 69.9597883,19.1499832 C69.5485054,17.8379215 68.9182794,16.7612966 68.091457,15.9512341" id="Fill-13" fill="#000000"></path>
                        <polygon id="Fill-15" fill="#E11A2B" points="18.6668189 0.266110177 14.2818403 13.7780586 0 13.7780586 11.5696607 22.1763713 7.18734246 35.6925762 18.6492609 27.3299116 30.1792831 35.7319487 25.7738202 22.1540247 37.2926691 13.7780586 23.056586 13.7780586"></polygon>
                    </g>
                </g>
            </g>
        </svg>